# xmcd
#
# Track frame offsets:
#	150
#	16233
#	29591
#	45872
#	58024
#	71724
#	84948
#	94306
#	106078
#	121724
#	132093
#	144326
#	153509
#	168049
#
# Disc length: 2424 seconds
#
# Revision: 0
# Processed by: cddbd v1.5.2PL0 Copyright (c) Steve Scherf et al.
# Submitted via: EZCDAudioConverter 2.0.5.1
#
DISCID=a609760e
DTITLE=Dalida - De Bambino Au Jour Le Plus Long
DYEAR=1966
DGENRE=Chanson francaise
TTITLE0=Bambino
TTITLE1=Gondolier
TTITLE2=Les Gitans
TTITLE3=Come Prima
TTITLE4=Love In Portofino
TTITLE5=Ciao ciao bambina
TTITLE6=T'aimer follement
TTITLE7=Les enfants du Piree
TTITLE8=Romantica
TTITLE9=Itsi, Bitsi, petit bikini
TTITLE10=Garde-moi la derniere danse
TTITLE11=Le jour le plus long
TTITLE12=La danse de Zorba
TTITLE13=Il Silenzio
EXTD=
EXTT0=
EXTT1=
EXTT2=
EXTT3=
EXTT4=
EXTT5=
EXTT6=
EXTT7=
EXTT8=
EXTT9=
EXTT10=
EXTT11=
EXTT12=
EXTT13=
PLAYORDER=
